<svg xmlns="http://www.w3.org/2000/svg" viewBox="0 0 191.8 170.9"><path d="M3 123.9h16.8V98.3H4.2v-12h28.2v37.6h14.4v12H3v-12zm32.5-52.2c0 1.3-.2 2.6-.8 3.8s-1.2 2.2-2 3-1.9 1.5-3 2-2.4.8-3.7.8c-1.3 0-2.6-.2-3.7-.8s-2.1-1.2-3-2-1.5-1.8-2-3-.8-2.4-.8-3.8.2-2.6.8-3.8 1.2-2.2 2-3 1.9-1.5 3-2 2.4-.8 3.7-.8c1.3 0 2.5.2 3.7.8 1.2.5 2.2 1.2 3 2s1.5 1.8 2 3 .8 2.4.8 3.8z" opacity=".4"/><path d="M77.5 137.9c-9.2 0-17.1-3.1-23.8-9.4l6.5-16.1c4.9 4.6 9.6 6.8 14.2 6.8 4.2 0 7.4-1.4 9.8-4.3s3.5-6.8 3.5-11.9V37h19.4v71.2c0 9.4-2.6 16.8-7.9 22-5.2 5.1-12.5 7.7-21.7 7.7zM151.6 137.9c-4.6 0-8.8-.5-12.7-1.5s-7.4-2.3-10.4-3.8-5.7-3.1-7.9-4.8-3.9-3.1-5.2-4.3l10-16.1c1.3 1.2 2.9 2.5 4.7 3.9 1.8 1.4 3.9 2.8 6.2 4.1s4.8 2.4 7.4 3.2 5.5 1.3 8.5 1.3c2.8 0 5.3-.4 7.4-1.3s3.8-2.2 5.1-3.9c1.2-1.7 1.9-3.9 1.9-6.5 0-2.4-.5-4.4-1.5-6s-2.5-3.2-4.4-4.5-4.3-2.7-7.1-4c-2.8-1.3-6-2.7-9.6-4.3-2.7-1.2-5.2-2.6-7.6-4.1s-4.6-3.3-6.4-5.4c-1.9-2-3.4-4.3-4.5-6.9s-1.6-5.5-1.6-8.7c0-3.8.8-7.4 2.3-10.9s3.7-6.6 6.5-9.3c2.8-2.7 6.2-4.9 10.1-6.5 3.9-1.6 8.2-2.4 13.1-2.4 3.6 0 7.2.5 10.8 1.4s7 2.2 10.1 3.8 5.8 3.3 7.9 5.1l-8.1 15.2c-1.7-1.5-3.7-2.8-5.9-4-2.2-1.2-4.5-2.1-7-2.8s-4.9-1.1-7.5-1.1c-2.8 0-5.2.5-7.2 1.5s-3.5 2.3-4.6 4c-1.1 1.7-1.6 3.5-1.6 5.6 0 1.7.4 3.1 1.1 4.3s1.7 2.2 3 3.1 2.8 1.7 4.6 2.5c1.8.8 3.8 1.6 5.9 2.5 4.6 2 8.8 3.9 12.6 5.8s7 4.1 9.7 6.4c2.7 2.3 4.7 5.1 6.1 8.2s2.1 6.8 2.1 11.2c0 6.3-1.5 11.7-4.5 16.3-3 4.5-7.2 8-12.6 10.4-5.7 2.1-12 3.3-19.2 3.3z"/></svg>